<svg xmlns="http://www.w3.org/2000/svg" viewBox="0 0 319.95 103.19"><defs><style>.cls-1{fill:#9f0004;}.cls-2{font-size:23.05px;fill:#fff;font-family:GillSansNovaInline-Regular, Gill Sans Nova Inline;}.cls-3{letter-spacing:-0.03em;}.cls-4{letter-spacing:-0.01em;}.cls-5{letter-spacing:0em;}</style></defs><g id="Layer_2" data-name="Layer 2"><g id="Layer_1-2" data-name="Layer 1"><path class="cls-1" d="M162.57.41h48V6.59h-48m7.21,6.48h40.76v6.18H176.69v81.52h-6.91Z"/><path class="cls-1" d="M77.17,12.48,77.54.42H97.26L156,69.14V.42H163V87L93.73,6.6h-14m77.46,94.18L122.62,60.64,88.08,20.5c.59-2.48,1.58-4.94,2.17-7.43q35.22,40.77,70.43,81.53Q158.92,97.69,157.15,100.78Z"/><polygon class="cls-1" points="169.78 94.59 160.65 94.59 157.12 100.77 169.78 100.77 169.78 94.59"/><path class="cls-1" d="M96.79.42,52.68,100.8h-7.5L0,0H7.51L48.86,93.45,89.29.42m-7.06,0L49.3,77.26h-.59L14.57,0h7.65L48.86,63,74.59.42"/><text class="cls-2" transform="translate(190.16 41.79)"><tspan class="cls-3">V</tspan><tspan x="14.68" y="0">ON </tspan><tspan x="0" y="27.66">NEU</tspan><tspan class="cls-4" x="49.57" y="27.66">M</tspan><tspan x="68.63" y="27.66">ANN </tspan><tspan class="cls-5" x="0" y="55.31">T</tspan><tspan x="14.68" y="55.31">EAM</tspan></text></g></g></svg>